<svg xmlns="http://www.w3.org/2000/svg" xmlns:xlink="http://www.w3.org/1999/xlink" version="1.1" x="0px" y="0px" viewBox="0 0 100 125" style="enable-background:new 0 0 100 100;" xml:space="preserve"><path fill="#dbe2fb" d="M28.773,58.328c0.218,0.218,0.503,0.327,0.788,0.327s0.57-0.109,0.788-0.327l4.043-4.043l4.043,4.043  c0.218,0.218,0.503,0.327,0.788,0.327s0.57-0.109,0.788-0.327c0.436-0.435,0.436-1.141,0-1.576l-4.043-4.043l4.043-4.043  c0.436-0.435,0.436-1.141,0-1.576c-0.435-0.436-1.141-0.436-1.576,0l-4.043,4.043l-4.043-4.043c-0.435-0.436-1.141-0.436-1.576,0  c-0.436,0.435-0.436,1.141,0,1.576l4.043,4.043l-4.043,4.043C28.337,57.187,28.337,57.893,28.773,58.328z"/><path fill="#dbe2fb" d="M65.608,46.057c-3.668,0-6.651,2.984-6.651,6.651s2.984,6.653,6.651,6.653c3.668,0,6.652-2.985,6.652-6.653  S69.276,46.057,65.608,46.057z M65.608,57.206c-2.48,0-4.496-2.018-4.496-4.497c0-2.48,2.016-4.496,4.496-4.496  c2.48,0,4.497,2.016,4.497,4.496C70.105,55.188,68.087,57.206,65.608,57.206z"/><path fill="#dbe2fb" d="M64.994,74.273l-5.31,5.31l-4.998-4.998l-5.623,5.623l-4.686-4.686l-4.998,4.998l-4.998-4.998l-5.661,5.661  c-0.366,0.366-0.366,0.959,0,1.325c0.366,0.366,0.959,0.366,1.325,0l4.335-4.335l4.998,4.998l4.998-4.998l4.686,4.686l5.623-5.623  l4.998,4.998l5.31-5.31l4.96,4.96c0.366,0.366,0.959,0.366,1.325,0c0.366-0.366,0.366-0.959,0-1.325L64.994,74.273z"/><path fill="#dbe2fb" d="M92.383,39.336h-2.508v-1.186c0-9.883-8.018-17.901-17.901-17.901h-5.809v-2.821c0-3.544-3.427-6.426-7.641-6.426h-6.908  V6.466h10.886c0.501,2.456,2.678,4.311,5.28,4.311c2.971,0,5.389-2.417,5.389-5.389S70.753,0,67.782,0  c-2.204,0-4.098,1.333-4.932,3.233H48.383v7.77h-6.908c-4.214,0-7.641,2.882-7.641,6.426v2.821h-5.809  c-9.883,0-17.901,8.018-17.901,17.901v1.186H7.617c-3.544,0-6.426,3.427-6.426,7.641l0,17.049c0,4.214,2.882,7.641,6.426,7.641  h2.508v10.432c0,9.883,8.018,17.901,17.901,17.901h43.949c9.883,0,17.901-8.018,17.901-17.901V71.667h2.508  c3.544,0,6.426-3.427,6.426-7.641V46.977C98.809,42.763,95.927,39.336,92.383,39.336z M67.782,2.155c1.783,0,3.233,1.45,3.233,3.233  s-1.45,3.233-3.233,3.233c-1.783,0-3.233-1.45-3.233-3.233S65.999,2.155,67.782,2.155z M37.068,17.429  c0-2.048,1.972-3.707,4.408-3.707h17.049c2.436,0,4.408,1.659,4.408,3.707v2.821H37.068V17.429z M7.617,68.434  c-2.048,0-3.707-1.972-3.707-4.408V46.977c0-2.436,1.659-4.408,3.707-4.408h2.508v25.865H7.617z M86.642,82.099  c0,8.083-6.585,14.668-14.668,14.668H28.026c-8.083,0-14.668-6.585-14.668-14.668V38.151c0-8.083,6.585-14.668,14.668-14.668h43.949  c8.083,0,14.668,6.585,14.668,14.668V82.099z M96.09,64.026c0,2.436-1.659,4.408-3.707,4.408h-2.508V42.569h2.508  c2.048,0,3.707,1.972,3.707,4.408V64.026z"/></svg>