<?xml version="1.0" encoding="iso-8859-1"?>
<!-- Uploaded to: SVG Repo, www.svgrepo.com, Generator: SVG Repo Mixer Tools -->
<svg version="1.1" id="Layer_1" xmlns="http://www.w3.org/2000/svg" xmlns:xlink="http://www.w3.org/1999/xlink" 
	 viewBox="0 0 460 460" xml:space="preserve">
<g>
	<path style="fill:#FFEDB5;" d="M230,0C102.974,0,0,102.974,0,230c0,109.287,76.222,200.771,178.405,224.19L454.19,178.405
		C430.771,76.222,339.287,0,230,0z"/>
	<path style="fill:#FFAD9E;" d="M460,230c0-17.739-2.012-35.008-5.814-51.594L367.89,92.11L92.11,367.89l86.296,86.296
		C194.992,457.988,212.261,460,230,460C357.026,460,460,357.025,460,230z"/>
	<polygon style="fill:#C2001B;" points="425,230 391.94,262.21 410.16,304.62 367.29,321.73 367.89,367.89 321.73,367.29 
		304.62,410.16 262.21,391.94 230,425 190,230 230,35 262.21,68.06 304.62,49.84 321.73,92.71 367.89,92.11 367.29,138.27 
		410.16,155.38 391.94,197.79 	"/>
	<polygon style="fill:#FF0F27;" points="230,35 230,425 197.79,391.94 155.38,410.16 138.27,367.29 92.11,367.89 92.71,321.73 
		49.84,304.62 68.06,262.21 35,230 68.06,197.79 49.84,155.38 92.71,138.27 92.11,92.11 138.27,92.71 155.38,49.84 197.79,68.06 	
		"/>
	<polygon style="fill:#FF0F27;" points="396.34,230 368.15,257.48 383.68,293.66 347.11,308.25 347.62,347.62 308.25,347.11 
		293.66,383.68 257.48,368.15 230,396.34 200,230 230,63.66 257.48,91.85 293.66,76.32 308.25,112.89 347.62,112.38 347.11,151.75 
		383.68,166.34 368.15,202.52 	"/>
	<polygon style="fill:#FF6161;" points="230,63.66 230,396.34 202.52,368.15 166.34,383.68 151.75,347.11 112.38,347.62 
		112.89,308.25 76.32,293.66 91.85,257.48 63.66,230 91.85,202.52 76.32,166.34 112.89,151.75 112.38,112.38 151.75,112.89 
		166.34,76.32 202.52,91.85 	"/>
	<path style="fill:#FFFFFF;" d="M179.349,222.349c-20.953,0-38-17.047-38-38v-10c0-20.953,17.047-38,38-38s38,17.047,38,38v10
		C217.349,205.302,200.302,222.349,179.349,222.349z M179.349,156.349c-9.925,0-18,8.075-18,18v10c0,9.925,8.075,18,18,18
		s18-8.075,18-18v-10C197.349,164.423,189.273,156.349,179.349,156.349z"/>
	<path style="fill:#FFFFFF;" d="M280.651,323.651c-20.953,0-38-17.047-38-38v-10c0-20.953,17.047-38,38-38s38,17.047,38,38v10
		C318.651,306.604,301.604,323.651,280.651,323.651z M280.651,257.651c-9.925,0-18,8.075-18,18v10c0,9.925,8.075,18,18,18
		s18-8.075,18-18v-10C298.651,265.726,290.576,257.651,280.651,257.651z"/>
	
		<rect x="220" y="148.772" transform="matrix(-0.7071 -0.7071 0.7071 -0.7071 230.0025 555.2646)" style="fill:#FFFFFF;" width="20.001" height="162.45"/>
</g>
</svg>